<svg width="920" height="580" xmlns="http://www.w3.org/2000/svg" font-family="Arial, sans-serif">
  <!-- Background Region -->
  <rect x="4" y="4" width="912" height="572" rx="14" fill="#F0F4F8" stroke="#90A4AE" stroke-width="2" stroke-dasharray="10,5"/>
  <text x="24" y="30" font-size="15" font-weight="bold" fill="#546E7A">&#x2601; AWS Region — us-east-1</text>

  <!-- VPC -->
  <rect x="20" y="44" width="880" height="520" rx="10" fill="#E3F2FD" stroke="#1E88E5" stroke-width="2.5"/>
  <text x="40" y="70" font-size="14" font-weight="bold" fill="#1565C0">VPC: 10.0.0.0/16</text>

  <!-- Internet Gateway bar -->
  <rect x="340" y="50" width="240" height="36" rx="6" fill="#FF9800" stroke="#E65100" stroke-width="1.5"/>
  <text x="370" y="73" font-size="12" font-weight="bold" fill="white">&#x1F310; Internet Gateway</text>
  <!-- IGW arrows up -->
  <line x1="460" y1="44" x2="460" y2="10" stroke="#FF9800" stroke-width="2" stroke-dasharray="4,3"/>
  <polygon points="460,4 455,14 465,14" fill="#FF9800"/>
  <text x="468" y="22" font-size="10" fill="#E65100">Internet</text>

  <!-- AZ-A -->
  <rect x="40" y="104" width="410" height="440" rx="8" fill="white" stroke="#B0BEC5" stroke-width="1.5" stroke-dasharray="7,4"/>
  <text x="58" y="124" font-size="12" font-weight="bold" fill="#607D8B">Availability Zone: us-east-1a</text>

  <!-- AZ-B -->
  <rect x="470" y="104" width="410" height="440" rx="8" fill="white" stroke="#B0BEC5" stroke-width="1.5" stroke-dasharray="7,4"/>
  <text x="488" y="124" font-size="12" font-weight="bold" fill="#607D8B">Availability Zone: us-east-1b</text>

  <!-- === AZ-A SUBNETS === -->

  <!-- Public A -->
  <rect x="58" y="134" width="374" height="110" rx="6" fill="#E8F5E9" stroke="#43A047" stroke-width="1.5"/>
  <text x="74" y="155" font-size="11" font-weight="bold" fill="#2E7D32">Public Subnet — 10.0.1.0/24</text>
  <rect x="74" y="164" width="130" height="38" rx="5" fill="#43A047"/>
  <text x="90" y="180" font-size="10" font-weight="bold" fill="white">NAT Gateway</text>
  <text x="90" y="194" font-size="9" fill="#C8E6C9">EIP: 52.x.x.x</text>
  <rect x="218" y="164" width="130" height="38" rx="5" fill="#66BB6A"/>
  <text x="234" y="180" font-size="10" font-weight="bold" fill="white">Bastion / ALB</text>
  <text x="234" y="194" font-size="9" fill="#C8E6C9">Public IP</text>
  <rect x="362" y="164" width="58" height="38" rx="5" fill="#A5D6A7" stroke="#43A047" stroke-width="1"/>
  <text x="370" y="180" font-size="9" fill="#2E7D32">IGW</text>
  <text x="368" y="194" font-size="9" fill="#2E7D32">Route</text>

  <!-- Private A -->
  <rect x="58" y="258" width="374" height="110" rx="6" fill="#E3F2FD" stroke="#1E88E5" stroke-width="1.5"/>
  <text x="74" y="279" font-size="11" font-weight="bold" fill="#1565C0">Private Subnet — 10.0.11.0/24</text>
  <rect x="74" y="288" width="130" height="38" rx="5" fill="#1E88E5"/>
  <text x="90" y="304" font-size="10" font-weight="bold" fill="white">App Servers</text>
  <text x="90" y="318" font-size="9" fill="#BBDEFB">EC2 / ECS / EKS</text>
  <rect x="218" y="288" width="130" height="38" rx="5" fill="#42A5F5"/>
  <text x="228" y="304" font-size="10" font-weight="bold" fill="white">Internal LB</text>
  <text x="228" y="318" font-size="9" fill="#BBDEFB">10.0.11.x</text>
  <rect x="362" y="288" width="58" height="38" rx="5" fill="#BBDEFB" stroke="#1E88E5" stroke-width="1"/>
  <text x="368" y="304" font-size="9" fill="#1565C0">NAT</text>
  <text x="368" y="318" font-size="9" fill="#1565C0">Route</text>

  <!-- Isolated A -->
  <rect x="58" y="382" width="374" height="110" rx="6" fill="#FCE4EC" stroke="#E53935" stroke-width="1.5"/>
  <text x="74" y="403" font-size="11" font-weight="bold" fill="#B71C1C">Isolated Subnet — 10.0.21.0/24</text>
  <rect x="74" y="412" width="130" height="38" rx="5" fill="#E53935"/>
  <text x="84" y="428" font-size="10" font-weight="bold" fill="white">RDS Primary</text>
  <text x="84" y="442" font-size="9" fill="#FFCDD2">PostgreSQL / MySQL</text>
  <rect x="218" y="412" width="130" height="38" rx="5" fill="#EF5350"/>
  <text x="228" y="428" font-size="10" font-weight="bold" fill="white">ElastiCache</text>
  <text x="228" y="442" font-size="9" fill="#FFCDD2">Redis / Memcached</text>
  <rect x="362" y="412" width="58" height="38" rx="5" fill="#FFCDD2" stroke="#E53935" stroke-width="1"/>
  <text x="368" y="428" font-size="9" fill="#B71C1C">No</text>
  <text x="366" y="442" font-size="9" fill="#B71C1C">Route</text>

  <!-- === AZ-B SUBNETS === -->

  <!-- Public B -->
  <rect x="488" y="134" width="374" height="110" rx="6" fill="#E8F5E9" stroke="#43A047" stroke-width="1.5"/>
  <text x="504" y="155" font-size="11" font-weight="bold" fill="#2E7D32">Public Subnet — 10.0.2.0/24</text>
  <rect x="504" y="164" width="130" height="38" rx="5" fill="#43A047"/>
  <text x="520" y="180" font-size="10" font-weight="bold" fill="white">NAT Gateway</text>
  <text x="520" y="194" font-size="9" fill="#C8E6C9">EIP: 54.x.x.x</text>
  <rect x="648" y="164" width="130" height="38" rx="5" fill="#66BB6A"/>
  <text x="664" y="180" font-size="10" font-weight="bold" fill="white">Bastion / ALB</text>
  <text x="664" y="194" font-size="9" fill="#C8E6C9">Public IP</text>
  <rect x="792" y="164" width="58" height="38" rx="5" fill="#A5D6A7" stroke="#43A047" stroke-width="1"/>
  <text x="800" y="180" font-size="9" fill="#2E7D32">IGW</text>
  <text x="798" y="194" font-size="9" fill="#2E7D32">Route</text>

  <!-- Private B -->
  <rect x="488" y="258" width="374" height="110" rx="6" fill="#E3F2FD" stroke="#1E88E5" stroke-width="1.5"/>
  <text x="504" y="279" font-size="11" font-weight="bold" fill="#1565C0">Private Subnet — 10.0.12.0/24</text>
  <rect x="504" y="288" width="130" height="38" rx="5" fill="#1E88E5"/>
  <text x="520" y="304" font-size="10" font-weight="bold" fill="white">App Servers</text>
  <text x="520" y="318" font-size="9" fill="#BBDEFB">EC2 / ECS / EKS</text>
  <rect x="648" y="288" width="130" height="38" rx="5" fill="#42A5F5"/>
  <text x="658" y="304" font-size="10" font-weight="bold" fill="white">Internal LB</text>
  <text x="658" y="318" font-size="9" fill="#BBDEFB">10.0.12.x</text>
  <rect x="792" y="288" width="58" height="38" rx="5" fill="#BBDEFB" stroke="#1E88E5" stroke-width="1"/>
  <text x="798" y="304" font-size="9" fill="#1565C0">NAT</text>
  <text x="798" y="318" font-size="9" fill="#1565C0">Route</text>

  <!-- Isolated B -->
  <rect x="488" y="382" width="374" height="110" rx="6" fill="#FCE4EC" stroke="#E53935" stroke-width="1.5"/>
  <text x="504" y="403" font-size="11" font-weight="bold" fill="#B71C1C">Isolated Subnet — 10.0.22.0/24</text>
  <rect x="504" y="412" width="130" height="38" rx="5" fill="#E53935"/>
  <text x="514" y="428" font-size="10" font-weight="bold" fill="white">RDS Standby</text>
  <text x="514" y="442" font-size="9" fill="#FFCDD2">Multi-AZ Replica</text>
  <rect x="648" y="412" width="130" height="38" rx="5" fill="#EF5350"/>
  <text x="658" y="428" font-size="10" font-weight="bold" fill="white">ElastiCache</text>
  <text x="658" y="442" font-size="9" fill="#FFCDD2">Replica Node</text>
  <rect x="792" y="412" width="58" height="38" rx="5" fill="#FFCDD2" stroke="#E53935" stroke-width="1"/>
  <text x="798" y="428" font-size="9" fill="#B71C1C">No</text>
  <text x="796" y="442" font-size="9" fill="#B71C1C">Route</text>

  <!-- Arrows connecting AZ-A subnet stacks vertically -->
  <line x1="245" y1="244" x2="245" y2="258" stroke="#999" stroke-width="1.5" stroke-dasharray="3,2"/>
  <line x1="245" y1="368" x2="245" y2="382" stroke="#999" stroke-width="1.5" stroke-dasharray="3,2"/>
  <line x1="675" y1="244" x2="675" y2="258" stroke="#999" stroke-width="1.5" stroke-dasharray="3,2"/>
  <line x1="675" y1="368" x2="675" y2="382" stroke="#999" stroke-width="1.5" stroke-dasharray="3,2"/>

  <!-- Legend -->
  <rect x="40" y="506" width="840" height="48" rx="6" fill="#FAFAFA" stroke="#CFD8DC" stroke-width="1"/>
  <rect x="58" y="519" width="14" height="14" fill="#E8F5E9" stroke="#43A047" stroke-width="1.5"/>
  <text x="78" y="530" font-size="11" fill="#444">Public — has 0.0.0.0/0 → IGW route</text>
  <rect x="310" y="519" width="14" height="14" fill="#E3F2FD" stroke="#1E88E5" stroke-width="1.5"/>
  <text x="330" y="530" font-size="11" fill="#444">Private — has 0.0.0.0/0 → NAT GW route</text>
  <rect x="580" y="519" width="14" height="14" fill="#FCE4EC" stroke="#E53935" stroke-width="1.5"/>
  <text x="600" y="530" font-size="11" fill="#444">Isolated — no internet route at all</text>
</svg>
